<?xml version="1.0" encoding="UTF-8" standalone="no"?>
<!-- Created with Inkscape (http://www.inkscape.org/) -->

<svg
   xmlns:dc="http://purl.org/dc/elements/1.1/"
   xmlns:cc="http://creativecommons.org/ns#"
   xmlns:rdf="http://www.w3.org/1999/02/22-rdf-syntax-ns#"
   xmlns:svg="http://www.w3.org/2000/svg"
   xmlns="http://www.w3.org/2000/svg"
   xmlns:sodipodi="http://sodipodi.sourceforge.net/DTD/sodipodi-0.dtd"
   xmlns:inkscape="http://www.inkscape.org/namespaces/inkscape"
   version="1.1"
   id="svg2"
   width="200"
   height="60"
   viewBox="0 0 200 60"
   sodipodi:docname="invest-logo.svg"
   inkscape:version="0.92.4 (5da689c313, 2019-01-14)">
  <metadata
     id="metadata8">
    <rdf:RDF>
      <cc:Work
         rdf:about="">
        <dc:format>image/svg+xml</dc:format>
        <dc:type
           rdf:resource="http://purl.org/dc/dcmitype/StillImage" />
        <dc:title></dc:title>
      </cc:Work>
    </rdf:RDF>
  </metadata>
  <defs
     id="defs6" />
  <sodipodi:namedview
     pagecolor="#ffffff"
     bordercolor="#666666"
     borderopacity="1"
     objecttolerance="10"
     gridtolerance="10"
     guidetolerance="10"
     inkscape:pageopacity="0"
     inkscape:pageshadow="2"
     inkscape:window-width="1920"
     inkscape:window-height="1163"
     id="namedview4"
     showgrid="false"
     fit-margin-top="0"
     fit-margin-left="0"
     fit-margin-right="0"
     fit-margin-bottom="0"
     inkscape:zoom="5.1854497"
     inkscape:cx="53.168382"
     inkscape:cy="-28.013301"
     inkscape:window-x="0"
     inkscape:window-y="0"
     inkscape:window-maximized="1"
     inkscape:current-layer="svg2" />
  <text
     xml:space="preserve"
     style="font-style:normal;font-variant:normal;font-weight:normal;font-stretch:normal;font-size:37.56656265px;line-height:1.25;font-family:'Bebas Neue';-inkscape-font-specification:'Bebas Neue';letter-spacing:0px;word-spacing:0px;fill:#1c7a47;fill-opacity:1;stroke:none;stroke-width:0.93916404;"
     x="-2.3666935"
     y="51.66185"
     id="text4526"
     transform="scale(1.0066001,0.99344318)"><tspan
       sodipodi:role="line"
       id="tspan4524"
       x="-2.3666935"
       y="51.66185"
       style="font-style:normal;font-variant:normal;font-weight:normal;font-stretch:normal;font-family:'Pathway Gothic One';-inkscape-font-specification:'Pathway Gothic One';fill:#1c7a47;fill-opacity:1;stroke-width:0.93916404;">Invest</tspan><tspan
       sodipodi:role="line"
       x="-2.3666935"
       y="98.620056"
       id="tspan4528"
       style="font-style:normal;font-variant:normal;font-weight:normal;font-stretch:normal;font-family:'Pathway Gothic One';-inkscape-font-specification:'Pathway Gothic One';fill:#1c7a47;fill-opacity:1;stroke-width:0.93916404;" /></text>
  <text
     xml:space="preserve"
     style="font-style:normal;font-variant:normal;font-weight:normal;font-stretch:normal;font-size:37.57718277px;line-height:1.25;font-family:'Bebas Neue';-inkscape-font-specification:'Bebas Neue';letter-spacing:0px;word-spacing:0px;fill:#c83312;fill-opacity:1;stroke:none;stroke-width:0.9394294"
     x="115.82124"
     y="52.420872"
     id="text4536"><tspan
       sodipodi:role="line"
       id="tspan4534"
       x="115.82124"
       y="52.420872"
       style="font-style:normal;font-variant:normal;font-weight:normal;font-stretch:normal;font-family:'Pathway Gothic One';-inkscape-font-specification:'Pathway Gothic One';fill:#c83312;fill-opacity:1;stroke-width:0.9394294">Change</tspan></text>
  <text
     xml:space="preserve"
     style="font-style:normal;font-variant:normal;font-weight:normal;font-stretch:normal;font-size:37.97457123px;line-height:1.25;font-family:'Bebas Neue';-inkscape-font-specification:'Bebas Neue';letter-spacing:0px;word-spacing:0px;fill:#1c7a47;fill-opacity:1;stroke:none;stroke-width:0.94936424;"
     x="75.483635"
     y="51.214802"
     id="text4532"><tspan
       sodipodi:role="line"
       id="tspan4530"
       x="75.483635"
       y="51.214802"
       style="font-style:normal;font-variant:normal;font-weight:normal;font-stretch:normal;font-family:'Pathway Gothic One';-inkscape-font-specification:'Pathway Gothic One';fill:#1c7a47;fill-opacity:1;stroke-width:0.94936424;">in</tspan></text>
  <path
     style="color:#000000;font-style:normal;font-variant:normal;font-weight:normal;font-stretch:normal;font-size:medium;line-height:normal;font-family:sans-serif;font-variant-ligatures:normal;font-variant-position:normal;font-variant-caps:normal;font-variant-numeric:normal;font-variant-alternates:normal;font-feature-settings:normal;text-indent:0;text-align:start;text-decoration:none;text-decoration-line:none;text-decoration-style:solid;text-decoration-color:#000000;letter-spacing:normal;word-spacing:normal;text-transform:none;writing-mode:lr-tb;direction:ltr;text-orientation:mixed;dominant-baseline:auto;baseline-shift:baseline;text-anchor:start;white-space:normal;shape-padding:0;clip-rule:nonzero;display:inline;overflow:visible;visibility:visible;opacity:1;isolation:auto;mix-blend-mode:normal;color-interpolation:sRGB;color-interpolation-filters:linearRGB;solid-color:#000000;solid-opacity:1;vector-effect:none;fill:#16a858;fill-opacity:1;fill-rule:nonzero;stroke:none;stroke-width:5.74319458;stroke-linecap:round;stroke-linejoin:miter;stroke-miterlimit:4;stroke-dasharray:none;stroke-dashoffset:0;stroke-opacity:1;color-rendering:auto;image-rendering:auto;shape-rendering:auto;text-rendering:auto;enable-background:accumulate"
     d="m 127.81793,0.00352404 c -1.25695,0.025443 -2.60361,0.1902941 -4.01479,0.5349194 C 118.80312,1.7594986 113.09048,5.2530275 107.79493,12.442026 105.89993,10.157424 103.1146,8.3271689 100.24394,6.9967703 98.050612,5.9802788 95.774976,5.2831429 93.634602,5.0797954 91.494222,4.8764478 88.750076,4.2914815 87.162026,7.1043497 85.951208,11.153873 91.823627,16.86826 94.90579,18.334867 c 2.813266,1.278971 6.66368,1.691829 10.40982,1.436637 -0.0154,5.896928 -0.51472,12.808818 -0.8907,19.261447 -0.4374,7.506699 -1.28084,13.909686 -0.14725,18.600686 0.8424,3.778416 7.06849,2.730874 6.09189,-1.016044 -0.72487,-2.99964 -0.60164,-9.823907 -0.1684,-17.259325 0.35403,-6.075996 0.83347,-12.663298 0.89068,-18.641376 4.8296,1.084027 9.24171,0.440111 13.01045,-1.659338 4.7859,-2.666116 8.53901,-7.240998 12.40108,-12.7900205 0.72729,-1.045868 0.64907,-2.443139 -0.19055,-3.4038307 -1.25736,-1.4395823 -2.90747,-2.11910726 -5.01626,-2.55451026 -1.05443,-0.2177021 -2.22164,-0.3311133 -3.47862,-0.3056685 z m 0.12186,5.58935646 c 0.68758,-0.01365 1.26073,0.065521 1.80578,0.1550174 -2.899,3.816617 -5.68843,6.9150961 -8.43504,8.4451691 -2.57929,1.436839 -5.16295,1.966146 -8.54141,1.220487 4.51498,-5.9553554 8.94058,-8.6049595 12.39887,-9.4495047 1.00417,-0.2452316 1.93661,-0.3545831 2.7718,-0.3711688 z M 93.750823,9.784104 c 2.04208,-0.3073921 3.219881,-0.1959169 5.103492,0.677035 2.413225,1.1184 4.493875,2.555906 5.951685,4.205713 -3.02501,0.190201 -5.28507,-0.176327 -7.096783,-0.999972 -1.293147,-0.715397 -3.323574,-1.835293 -3.958394,-3.882776 z"
     id="path4540"
     inkscape:connector-curvature="0"
     sodipodi:nodetypes="sscsscccsccscsccssscsccscsccc" />
</svg>
